<?xml version="1.0" encoding="UTF-8"?>
<svg id="Ebene_1" data-name="Ebene 1" xmlns="http://www.w3.org/2000/svg" viewBox="0 0 168.64 107.48">
  <defs>
    <style>
      .cls-1 {
        fill: rgb(213, 114, 90);
      }
    </style>
  </defs>
  <path class="cls-1" d="m15.45,51.29c7.56,0,13.22-6.24,13.22-14.05,0-5.9-4.74-10.14-9.4-14.38-4.74-4.32-10.97-8.64-10.97-14.55,0-4.24,3.57-7.23,7.48-7.23s5.98,3.41,5.98,6.07c0,2.41-1.33,4.16-2.58,5.07-.33.25-.25.75.08.75,1.5,0,6.15-1.25,6.15-5.73,0-2.91-2.91-7.23-9.4-7.23C10.71,0,5.48,3.82,5.48,10.47s5.41,11.06,10.56,15.38c4.66,3.91,9.15,7.9,9.15,13.88,0,5.32-3.74,10.48-9.15,10.48-4.16,0-9.39-3.91-9.39-10.72,0-3.49,1.66-5.49,2.49-6.23.5-.5.33-.83-.08-.83-1.41,0-6.57,2.49-6.57,7.73,0,6.4,6.07,11.14,12.97,11.14Z"/>
  <path class="cls-1" d="m28.11,10.92c2.58-7.73,3.66-9.4,9.48-9.4,2.49,0,3,1.58,3,4.82v37.66c0,3.82-1.33,5.57-3.82,5.57-.67,0-.67.83,0,.83h11.64c.67,0,.67-.83,0-.83-2.49,0-3.82-1.74-3.82-5.57V6.35c0-3.24.5-4.82,2.99-4.82,5.82,0,6.9,1.66,9.48,9.4.17.66,1,.58.91-.08l-1.58-9.06c-.17-.91-.41-1.25-1.41-1.25h-24.77c-1,0-1.25.34-1.41,1.25l-1.58,9.06c-.08.67.75.75.91.08Z"/>
  <path class="cls-1" d="m58.4,1.47c2.58,0,3.82,1.75,3.82,4.99v30.51c0,10.39,7.07,14.38,13.05,14.38,1.91,0,11.47.17,11.47-15.96V6.46c0-3.22,1.23-4.95,3.69-4.98,2.54.03,3.77,1.76,3.77,4.98v37.66c0,3.82-1.33,5.57-3.82,5.57-.67,0-.67.83,0,.83h11.22c12.05,0,20.53-8.98,20.53-24.86S113.67.64,101.2.64h-19.6c-.58,0-.58.83,0,.83,2.49,0,3.91,1.75,3.91,4.99v29.93c0,10.06-4.74,13.3-9.64,13.3s-9.64-3.82-9.64-11.64V6.46c0-3.24,1.5-4.99,4.07-4.99.58,0,.58-.83,0-.83h-11.89c-.58,0-.58.83,0,.83Zm39.8,4.99c0-3.24.34-4.82,3-4.82,9.06.25,16.71,9.31,16.71,23.94s-6.82,23.94-16.29,23.94c-3.08,0-3.41-1.58-3.41-5.32V6.46Z"/>
  <path class="cls-1" d="m123.7,49.69c-.67,0-.67.83,0,.83h11.64c.67,0,.67-.83,0-.83-2.49,0-3.82-1.74-3.82-5.57V6.46c0-3.24,1.33-4.99,3.82-4.99.67,0,.67-.83,0-.83h-11.64c-.67,0-.67.83,0,.83,2.49,0,3.82,1.75,3.82,4.99v37.66c0,3.82-1.33,5.57-3.82,5.57Z"/>
  <path class="cls-1" d="m152.76,51.52c8.81,0,15.88-10.48,15.88-26.27S161.57.06,152.76.06s-15.88,10.06-15.88,25.94,7.07,25.52,15.88,25.52Zm0-50.38c6.15,0,11.47,9.97,11.47,27.27,0,11.56-3.49,22.03-11.47,22.03-6.15,0-11.47-10.64-11.47-27.6,0-11.81,3.49-21.7,11.47-21.7Z"/>
  <path class="cls-1" d="m74.25,105.65c-2.49,0-3.82-1.74-3.82-5.57v-37c0-3.66,1.91-5.57,3.91-5.65.5,0,.5-.83,0-.83h-7.23l-11.89,42.32c-3.41-11.64-8.31-27.77-12.31-42.32h-7.81c-.58,0-.58.83,0,.83,1.66,0,3.99,1.25,4.57,3.49v39.74c0,3.24-1.25,4.99-3.82,4.99-.06,0-.03.06-.08.07-.04-.01-.02-.07-.07-.07-2.83,0-3.99-2.08-4.9-5.4l-11.06-44.06c-.08-.34-.5-.34-.58,0l-13.63,44.06c-1.08,3.49-2.16,5.4-5.07,5.4-.58,0-.58.83,0,.83h9.89c.42,0,.42-.83,0-.83-3.41,0-4.65-1.91-3.57-5.4l4.9-16.13h10.89l3.99,16.13c.91,3.49.66,5.4-2.91,5.4-.42,0-.42.83,0,.83h12.06s.03-.06.07-.07c.04.01.03.07.08.07h8.98c.58,0,.58-.83,0-.83-2.49,0-3.99-1.74-3.99-4.99v-38.08l12.47,44.14c.08.41.75.41.83,0l12.31-43.31v36.66c0,3.82-1.33,5.57-3.82,5.57-.67,0-.67.83,0,.83h11.64c.66,0,.66-.83,0-.83Zm-62.17-22.61l5.65-18.37,4.57,18.37h-10.22Z"/>
  <path class="cls-1" d="m91.75,56.02c-8.81,0-15.88,10.06-15.88,25.94s7.07,25.52,15.88,25.52,15.88-10.48,15.88-26.27-7.07-25.19-15.88-25.19Zm0,50.38c-6.15,0-11.47-10.64-11.47-27.6,0-11.81,3.49-21.7,11.47-21.7,6.15,0,11.47,9.97,11.47,27.27,0,11.56-3.49,22.03-11.47,22.03Z"/>
  <path class="cls-1" d="m167.79,94.26c-3.91,9.73-5.66,11.22-15.21,11.22-2.49,0-3.74-1.58-3.74-5.4v-22.11h6.07c2.08,0,3.82,1.5,4.41,4.82.08.58.83.58.83,0v-10.73c0-.58-.75-.58-.83,0-.5,3.33-2.33,4.9-4.41,4.9h-6.07v-14.55c0-3.24.5-4.82,3-4.82,8.89,0,10.06,1.5,12.72,9.4.17.58,1,.58.91,0l-1.58-9.15c-.17-.91-.42-1.25-1.41-1.25h-21.45c-.66,0-.66.83,0,.83,2.49,0,3.82,1.75,3.82,4.99v37.66c0,3.82-1.33,5.57-3.82,5.57-.11,0-.09.1-.16.14-.05-.04-.03-.14-.1-.14-1.5,0-3.16-1.33-4.16-2.58-4.66-5.9-2.33-23.03-13.22-24.77,3.24-1,8.73-4.07,8.73-11.06,0-5.24-3.57-10.64-13.8-10.64h-9.97c-.67,0-.67.83,0,.83,2.49,0,3.82,1.75,3.82,4.99v37.66c0,3.82-1.33,5.57-3.82,5.57-.67,0-.67.83,0,.83h11.64c.67,0,.67-.83,0-.83-2.49,0-3.82-1.74-3.82-5.57v-21.53h1.25c3.91,0,6.23,1.16,7.56,3.08,4.32,6.32,3.57,16.13,7.48,21.36,1.58,2.16,4.24,3.49,8.15,3.49h.17c.07,0,.06-.1.1-.14.07.04.06.14.16.14h23.19c1,0,1.16-.33,1.41-1.25l2.99-10.73c.17-.58-.58-.83-.83-.25Zm-51.65-16.71v-15.13c0-3.24.17-4.82,2.66-4.82,5.57,0,9.31,3.16,9.31,9.81,0,6.23-3.58,10.14-9.06,10.14h-2.91Z"/>
</svg>